<?xml version="1.0" encoding="UTF-8"?>
<svg xmlns="http://www.w3.org/2000/svg" xmlns:xlink="http://www.w3.org/1999/xlink" width="300px" height="300px" viewBox="0 0 240 240" version="1.1">
<g id="surface1">
<path style=" stroke:none;fill-rule:nonzero;fill:rgb(30.19608%,41.960785%,99.607843%);fill-opacity:1;" d="M 275.011719 84.6875 C 272.488281 83.457031 271.40625 85.800781 269.933594 86.992188 C 269.433594 87.382812 269.003906 87.890625 268.585938 88.339844 C 264.902344 92.285156 260.605469 94.863281 255 94.550781 C 246.785156 94.101562 239.785156 96.679688 233.59375 102.96875 C 232.273438 95.214844 227.898438 90.585938 221.25 87.617188 C 217.765625 86.074219 214.238281 84.53125 211.808594 81.171875 C 210.097656 78.789062 209.640625 76.132812 208.777344 73.515625 C 208.242188 71.933594 207.695312 70.3125 205.878906 70.039062 C 203.90625 69.726562 203.136719 71.386719 202.363281 72.773438 C 199.257812 78.4375 198.066406 84.6875 198.175781 91.015625 C 198.445312 105.234375 204.453125 116.5625 216.367188 124.628906 C 217.726562 125.546875 218.074219 126.484375 217.644531 127.832031 C 216.835938 130.605469 215.867188 133.300781 215.011719 136.074219 C 214.472656 137.851562 213.660156 138.242188 211.769531 137.460938 C 205.226562 134.726562 199.570312 130.683594 194.578125 125.78125 C 186.105469 117.578125 178.4375 108.515625 168.878906 101.425781 C 166.632812 99.765625 164.394531 98.222656 162.070312 96.757812 C 152.3125 87.265625 163.351562 79.472656 165.898438 78.554688 C 168.574219 77.597656 166.824219 74.277344 158.191406 74.316406 C 149.570312 74.355469 141.671875 77.246094 131.609375 81.09375 C 130.136719 81.679688 128.59375 82.109375 127.003906 82.441406 C 117.871094 80.722656 108.390625 80.332031 98.476562 81.445312 C 79.824219 83.535156 64.921875 92.363281 53.964844 107.441406 C 40.808594 125.546875 37.714844 146.132812 41.503906 167.617188 C 45.488281 190.234375 57.023438 208.984375 74.757812 223.632812 C 93.136719 238.808594 114.308594 246.25 138.457031 244.824219 C 153.125 243.984375 169.464844 242.011719 187.882812 226.40625 C 192.527344 228.710938 197.402344 229.628906 205.496094 230.332031 C 211.730469 230.917969 217.726562 230.019531 222.371094 229.0625 C 229.648438 227.519531 229.140625 220.78125 226.515625 219.53125 C 205.1875 209.589844 209.863281 213.632812 205.605469 210.371094 C 216.445312 197.519531 232.78125 184.179688 239.171875 140.976562 C 239.667969 137.539062 239.238281 135.390625 239.171875 132.597656 C 239.132812 130.917969 239.511719 130.253906 241.445312 130.058594 C 246.785156 129.453125 251.972656 127.988281 256.738281 125.351562 C 270.558594 117.792969 276.121094 105.390625 277.441406 90.507812 C 277.636719 88.242188 277.402344 85.878906 275.011719 84.6875 Z M 154.601562 218.613281 C 133.925781 202.34375 123.90625 196.992188 119.765625 197.226562 C 115.898438 197.441406 116.59375 201.875 117.441406 204.765625 C 118.328125 207.617188 119.492188 209.589844 121.121094 212.089844 C 122.246094 213.75 123.019531 216.230469 120 218.066406 C 113.339844 222.207031 101.769531 216.679688 101.222656 216.40625 C 87.753906 208.476562 76.492188 197.988281 68.554688 183.652344 C 60.898438 169.84375 56.445312 155.039062 55.714844 139.238281 C 55.519531 135.410156 56.640625 134.0625 60.429688 133.378906 C 65.417969 132.460938 70.578125 132.265625 75.566406 132.988281 C 96.660156 136.074219 114.617188 145.527344 129.667969 160.46875 C 138.261719 169.003906 144.765625 179.179688 151.464844 189.121094 C 158.585938 199.6875 166.25 209.746094 176.007812 217.988281 C 179.441406 220.878906 182.195312 223.085938 184.824219 224.707031 C 176.894531 225.585938 163.652344 225.78125 154.601562 218.613281 Z M 164.503906 154.804688 C 164.503906 153.105469 165.859375 151.757812 167.566406 151.757812 C 167.949219 151.757812 168.300781 151.835938 168.613281 151.953125 C 169.03125 152.109375 169.425781 152.34375 169.726562 152.695312 C 170.273438 153.222656 170.585938 154.003906 170.585938 154.804688 C 170.585938 156.503906 169.230469 157.851562 167.527344 157.851562 C 165.820312 157.851562 164.503906 156.503906 164.503906 154.804688 Z M 195.273438 170.625 C 193.300781 171.425781 191.328125 172.128906 189.433594 172.207031 C 186.492188 172.34375 183.28125 171.152344 181.53125 169.6875 C 178.828125 167.421875 176.894531 166.152344 176.074219 162.167969 C 175.730469 160.46875 175.929688 157.851562 176.230469 156.347656 C 176.933594 153.105469 176.152344 151.035156 173.878906 149.140625 C 172.011719 147.597656 169.65625 147.1875 167.0625 147.1875 C 166.09375 147.1875 165.203125 146.757812 164.539062 146.40625 C 163.457031 145.859375 162.566406 144.511719 163.417969 142.851562 C 163.691406 142.324219 165.011719 141.015625 165.320312 140.78125 C 168.839844 138.769531 172.898438 139.433594 176.660156 140.9375 C 180.144531 142.363281 182.773438 144.980469 186.5625 148.671875 C 190.4375 153.144531 191.132812 154.394531 193.339844 157.734375 C 195.078125 160.371094 196.671875 163.066406 197.753906 166.152344 C 198.40625 168.066406 197.558594 169.648438 195.273438 170.625 Z M 195.273438 170.625 "/>
</g>
</svg>
